<svg width="514" height="422" viewBox="0 0 514 422" fill="none" xmlns="http://www.w3.org/2000/svg">
<rect opacity="0.39" y="13" width="514" height="409" rx="38" fill="url(#paint0_linear_141_259)"/>
<mask id="mask0_141_259" style="mask-type:alpha" maskUnits="userSpaceOnUse" x="56" y="0" width="403" height="410">
<rect width="403" height="410" transform="matrix(1 0 0 -1 56 410)" fill="white"/>
</mask>
<g mask="url(#mask0_141_259)">
<path d="M309.144 294.268C306.453 304.645 304.858 315.277 304.386 325.988C303.005 357.638 311.818 383.014 318.66 398.152L201.295 370.396C208.761 351.502 210.687 330.871 206.846 310.921C203.944 296.361 197.999 282.579 189.4 270.477L309.144 294.268Z" fill="#E6C3AD"/>
<path opacity="0.57" d="M232.223 307.749L211.604 362.466L194.951 322.816L210.018 296.646L232.223 307.749Z" fill="#D7806F"/>
<path d="M193.329 309.515C194.636 316.403 197.856 328.151 206.903 338.78C230.67 366.702 279.486 369.09 305.541 349.693C321.389 337.895 324.902 320.865 328.158 321.874C331.585 322.935 330.455 342.64 313.012 417.988C299.155 417.665 278.204 417.072 251.8 415.921C246.681 415.698 244.247 415.58 239.89 415.385C223.463 414.652 199.791 413.731 169.299 412.992C177.309 378.5 185.319 344.007 193.329 309.515Z" fill="#0FB3A8"/>
<path d="M174.886 314.851C179.374 325.198 188.167 340.958 204.925 353.294C238.243 377.82 285.913 376.2 314.97 356.082C335.95 341.556 339.582 320.336 345.976 321.843C351.994 323.261 355.76 343.31 347.73 420.228L166.821 420.284C169.509 385.14 172.197 349.995 174.886 314.851Z" fill="url(#paint1_linear_141_259)"/>
<path d="M114.064 148.354C112.13 161.209 109.849 213.762 109.784 221.719C109.712 230.593 109.713 230.609 109.713 230.609C109.689 237.828 109.781 238.278 109.428 241.773C103.94 295.982 71.1514 300.584 76.6108 338.252C82.6773 380.111 115.335 392.329 121.208 422.966C123.699 435.959 121.492 455.011 100.583 481.418C108.91 485.648 157.936 509.854 184.318 488.854C197.85 478.082 200.28 459.987 201.147 444.144C203.952 392.898 206.757 341.651 209.561 290.405C195.705 280.944 183.483 269.287 173.379 255.892C166.394 246.574 155.079 231.286 150.659 210.398C142.519 171.932 164.639 139.59 171.36 129.762C180.827 115.919 203.611 82.5872 242.378 77.0523C292.515 69.8942 343.355 112.943 358.499 158.628C376.568 213.13 340.598 261.626 334.097 270.01C325.924 280.484 316.289 289.73 305.488 297.464L306.329 437.869C306.508 467.66 316.576 481.823 329.049 489.638C358.579 508.141 405.91 475.484 409.856 472.694C400.542 459.07 388.897 437.307 390.824 411.633C394.36 364.526 439.774 354.457 438.405 314.886C437.229 280.896 402.41 264.105 399.547 221.311C399.385 218.889 398.653 206.323 397.961 191.176C396.72 163.973 397.056 160.094 396.375 154.698C393.338 130.627 374.918 113.91 359.104 99.9806C337.117 80.614 303.222 50.6645 252.841 50.0211C179.689 49.0868 120.004 108.874 114.064 148.354Z" fill="#1A1A1A"/>
<path opacity="0.57" d="M158.052 166.941C143.233 217.579 174.422 259.435 181.05 267.848C187.551 276.101 220.74 319.769 268.281 314.888C305.355 311.081 327.306 280.249 336.479 267.364C342.537 258.855 368.179 222.838 359.476 176.804C351.742 135.891 317.18 88.7654 263.522 85.7595C212.409 82.8961 170.755 123.535 158.052 166.941Z" fill="#D7806F"/>
<path d="M160.059 161.331C143.877 216.123 178.427 260.917 182.263 265.719C187.41 272.163 221.651 315.038 270.287 309.278C307.758 304.841 329.467 274.422 338.486 261.754C344.543 253.245 370.185 217.229 361.483 171.194C353.749 130.282 319.186 83.156 265.529 80.15C212.636 77.187 172.392 119.572 160.059 161.331Z" fill="#E6C3AD"/>
<g opacity="0.57">
<path opacity="0.57" d="M232.514 181.592C228.841 180.969 225.193 180.262 221.449 179.694C217.692 179.174 213.967 178.607 210.298 178.438C206.613 178.246 202.92 178.635 199.356 179.591C195.719 180.583 192.235 182.07 189.004 184.012C191.995 181.596 195.305 179.604 198.84 178.091C202.459 176.561 206.296 175.608 210.211 175.267C214.13 174.903 217.98 174.956 221.787 174.948C225.603 174.99 229.489 175.187 233.365 175.306C233.801 175.32 234.229 175.423 234.623 175.608C235.017 175.794 235.369 176.059 235.657 176.386C235.945 176.713 236.162 177.096 236.296 177.511C236.43 177.925 236.477 178.363 236.435 178.797C236.393 179.231 236.263 179.651 236.052 180.032C235.841 180.413 235.554 180.747 235.208 181.013C234.863 181.279 234.467 181.471 234.044 181.578C233.622 181.685 233.182 181.703 232.752 181.633L232.514 181.592Z" fill="#D7806F"/>
</g>
<path d="M195.864 199.298C199.624 197.966 203.516 197.043 207.474 196.545C216.802 195.432 226.26 196.615 235.026 199.99" stroke="black" stroke-width="7" stroke-miterlimit="10" stroke-linecap="round"/>
<path d="M187.988 182.416C190.558 179.614 193.61 177.297 197.001 175.577C203.977 172.115 210.632 172.535 223.657 173.518C227.944 173.841 231.428 174.259 233.626 174.549" stroke="black" stroke-width="8" stroke-miterlimit="10" stroke-linecap="round"/>
<path opacity="0.57" d="M289.201 264.45C288.94 263.301 280.585 265.431 266.05 265.592C245.176 265.821 233.597 261.744 233.245 263.083C232.837 264.637 247.685 272.81 265.257 271.936C278.307 271.286 289.512 265.814 289.201 264.45Z" fill="#D7806F"/>
<path d="M206.053 448.904C205.153 462.431 204.098 479.518 191.779 490.141C165.784 512.556 111.895 486.992 100.583 481.417C114.288 469.143 130.207 450.562 130.718 427.493C131.522 391.094 94.0511 381.544 88.6881 341.848C83.5432 303.765 114.444 299.113 119.615 244.308C123.605 202.03 106.28 192.729 114.064 148.354C116.158 136.419 120.458 110.967 138.648 86.4995C173.741 39.2939 229.039 30.2645 235.395 29.4029C251.783 27.1812 288.435 24.8193 325.991 45.943C329.741 48.0524 382.977 79.0628 394.789 138.045C401.947 173.785 385.995 177.474 390.824 218.932C397.779 278.647 433.483 289.363 426.51 327.574C420.219 362.044 388.809 366.225 383.687 401.324C379.56 429.602 395.778 455.468 409.856 472.694C388.053 503.676 349.539 510.702 326.59 494.899C314.42 486.518 309.245 471.858 305.179 442.56C300.606 409.605 297.106 360.19 305.179 297.44C315.073 290.588 323.892 282.303 331.349 272.856C334.247 269.172 372.428 218.763 354.346 160.249C340.073 114.062 292.16 70.5396 244.911 77.7764C208.376 83.3721 186.904 117.07 177.982 131.066C171.461 141.293 152.515 172.293 158.473 212.588C162.324 238.634 174.914 256.46 179.884 263.34C190.21 277.6 203.457 289.495 218.741 298.233C212.445 362.801 208.612 410.457 206.053 448.904Z" fill="black"/>
<path d="M158.869 184.41C155.35 184.659 152.008 186.052 149.353 188.375C141.081 196.089 146.301 211.104 146.974 212.959C151.231 224.696 161.631 229.909 164.42 231.198" fill="#E6C3AD"/>
<path d="M354.488 184.41C358.007 184.659 361.349 186.052 364.004 188.375C372.275 196.089 367.055 211.104 366.383 212.959C362.126 224.696 351.725 229.909 348.937 231.198" fill="#E6C3AD"/>
<path d="M246.283 80.4222C222.081 92.4737 201.135 110.174 185.215 132.027C168.876 154.559 158.207 180.696 154.111 208.226C154.559 194.07 156.702 180.019 160.495 166.374C164.313 152.527 169.81 139.199 176.864 126.686C183.999 113.993 192.644 102.209 202.612 91.594C212.701 80.8247 224.045 71.3039 236.401 63.2354L246.283 80.4222Z" fill="black"/>
<path d="M246.865 60.3882C255.239 63.3506 263.416 66.8438 271.345 70.8466C279.227 74.8462 286.833 79.3677 294.113 84.3808C301.338 89.3797 308.211 94.8689 314.683 100.81C316.334 102.291 317.831 103.733 319.38 105.199C320.926 106.672 322.471 108.153 324.009 109.67C327.075 112.707 330.129 115.798 333.022 119.084C335.952 122.346 338.713 125.757 341.295 129.301C342.619 131.05 343.816 132.903 345.036 134.726C345.653 135.631 346.189 136.598 346.767 137.53C347.323 138.478 347.929 139.389 348.432 140.37C352.695 147.998 355.974 156.136 358.189 164.59C360.325 172.933 361.43 181.507 361.48 190.119C361.516 198.611 360.586 207.081 358.708 215.363C359.659 207.031 359.66 198.618 358.709 190.285C357.76 182.071 355.808 174.003 352.897 166.263C349.984 158.658 346.12 151.454 341.396 144.821C340.843 143.978 340.186 143.201 339.585 142.392C338.96 141.598 338.383 140.774 337.723 140.006C336.419 138.462 335.153 136.898 333.759 135.43C331.032 132.44 328.154 129.592 325.136 126.897C322.14 124.165 318.962 121.587 315.741 119.03C314.128 117.756 312.482 116.492 310.828 115.232C309.167 113.974 307.473 112.67 305.848 111.51C299.331 106.731 292.494 102.406 285.385 98.5631C278.313 94.7625 270.996 91.438 263.481 88.6118C256.001 85.8188 248.352 83.5045 240.578 81.6831L246.865 60.3882Z" fill="black"/>
<path d="M395.979 166.197C392.523 168.033 388.867 169.466 385.083 170.466C381.198 171.47 377.19 171.916 373.18 171.79C369.066 171.657 364.998 170.887 361.12 169.508C357.229 168.059 353.553 166.085 350.194 163.643C346.911 161.226 343.838 158.538 341.006 155.606C338.215 152.716 335.622 149.715 333.109 146.714C328.14 140.679 323.452 134.661 318.525 129.116C317.295 127.727 316.036 126.387 314.766 125.068C313.462 123.784 312.196 122.47 310.851 121.235C308.217 118.71 305.414 116.368 302.546 114.119C296.767 109.643 290.623 105.66 284.178 102.213C271.286 95.2262 257.227 90.3374 242.816 86.6643L247.789 86.0717C241.731 89.2054 235.838 92.6462 230.131 96.3808C224.444 100.121 218.975 104.182 213.75 108.544C211.149 110.734 208.588 112.981 206.151 115.358C203.649 117.672 201.266 120.106 198.918 122.584C194.259 127.577 189.847 132.849 185.484 138.394C183.279 141.134 181.044 143.944 178.724 146.73C177.575 148.124 176.353 149.513 175.154 150.886C173.875 152.229 172.665 153.609 171.329 154.91C166.096 160.219 160.151 164.777 153.665 168.452C147.293 172.072 140.478 174.847 133.39 176.708C129.9 177.635 126.356 178.349 122.78 178.845C119.232 179.324 115.661 179.602 112.082 179.678C125.946 176.455 139.045 170.953 149.982 162.755C152.705 160.742 155.296 158.558 157.739 156.214L159.545 154.456L161.26 152.603C162.428 151.403 163.491 150.08 164.576 148.791C168.852 143.575 172.653 137.767 176.659 131.871C180.699 125.832 185.043 120.002 189.675 114.404C199.165 103.099 210.154 93.1418 222.338 84.8094C228.4 80.6387 234.713 76.8439 241.24 73.4465L243.59 72.2046L246.213 72.8538C261.637 76.6703 276.844 82.1884 290.854 90.2565C297.867 94.3045 304.498 98.983 310.663 104.234C316.8 109.51 322.382 115.4 327.321 121.811C332.243 128.108 336.457 134.668 340.768 140.914C342.909 144.044 345.076 147.101 347.37 149.991C349.59 152.872 352.047 155.564 354.714 158.037C357.321 160.478 360.242 162.56 363.4 164.228C366.614 165.885 370.054 167.06 373.609 167.715C380.82 169.072 388.552 168.331 395.979 166.197Z" fill="#1A1A1A"/>
<path d="M242.928 76.587C238.434 61.2555 233.941 45.924 229.447 30.5925L242.928 76.587Z" fill="#54278F"/>
<path d="M239.124 77.7025L229.447 30.5923L246.733 75.4718L239.124 77.7025Z" fill="#1A1A1A"/>
<g opacity="0.57">
<path opacity="0.57" d="M285.531 176.099C289.407 175.98 293.293 175.783 297.109 175.74C300.916 175.749 304.767 175.696 308.686 176.06C312.6 176.401 316.437 177.354 320.056 178.884C323.592 180.397 326.902 182.389 329.893 184.805C326.661 182.863 323.178 181.376 319.54 180.384C315.976 179.428 312.284 179.039 308.599 179.231C304.93 179.4 301.205 179.967 297.448 180.486C293.704 181.055 290.055 181.762 286.383 182.385L286.163 182.423C285.75 182.493 285.328 182.481 284.92 182.388C284.512 182.295 284.127 182.122 283.786 181.88C283.445 181.638 283.155 181.331 282.932 180.977C282.71 180.623 282.559 180.228 282.489 179.816C282.419 179.404 282.431 178.981 282.524 178.574C282.617 178.166 282.789 177.78 283.031 177.439C283.273 177.098 283.58 176.808 283.935 176.585C284.289 176.363 284.683 176.212 285.096 176.142C285.24 176.119 285.385 176.104 285.531 176.099Z" fill="#D7806F"/>
</g>
<path d="M330.944 183.209C328.374 180.407 325.322 178.09 321.931 176.37C314.955 172.908 308.3 173.328 295.275 174.311C290.988 174.634 287.504 175.052 285.306 175.342" stroke="black" stroke-width="8" stroke-miterlimit="10" stroke-linecap="round"/>
<path opacity="0.57" d="M268.737 230C268.669 232.601 267.598 235.075 265.748 236.904C264.161 238.412 262.12 239.354 259.942 239.582" stroke="#D7806F" stroke-width="9" stroke-miterlimit="10" stroke-linecap="round"/>
<ellipse cx="218.5" cy="201" rx="11.5" ry="8" fill="black"/>
<path d="M324.364 199.528C320.604 198.195 316.711 197.273 312.754 196.775C303.426 195.662 293.968 196.845 285.202 200.22" stroke="black" stroke-width="7" stroke-miterlimit="10" stroke-linecap="round"/>
<ellipse rx="11.5" ry="8" transform="matrix(-1 0 0 1 301.728 201.229)" fill="black"/>
<path fill-rule="evenodd" clip-rule="evenodd" d="M213.336 106.881C213.096 108.481 211.787 109.704 210.208 109.704C209.757 109.704 209.328 109.605 208.94 109.425L196.846 129.489C197.739 130.082 198.334 131.133 198.334 132.332C198.334 133.44 197.825 134.423 197.042 135.033L208.841 183.46C210.489 183.578 211.792 185.03 211.792 186.805C211.792 186.908 211.787 187.01 211.778 187.111L245.893 197.089C246.471 196.433 247.295 196.024 248.208 196.024C249.656 196.024 250.877 197.052 251.254 198.457H261.787C262.165 197.052 263.385 196.024 264.833 196.024C265.823 196.024 266.706 196.504 267.287 197.257L304.42 185.277C304.418 185.228 304.417 185.178 304.417 185.129C304.417 183.277 305.834 181.777 307.583 181.777L307.607 181.777C307.664 181.777 307.721 181.779 307.777 181.783L319.068 135.443C317.904 134.947 317.083 133.741 317.083 132.332C317.083 131.571 317.322 130.87 317.725 130.308L303.257 109.783C302.711 110.257 302.012 110.542 301.25 110.542C299.65 110.542 298.327 109.286 298.114 107.655L213.336 106.881ZM308.751 182.012L320.04 135.677C320.109 135.681 320.179 135.684 320.25 135.684C320.642 135.684 321.018 135.608 321.364 135.47L345.116 169.166C344.433 169.781 344 170.697 344 171.72C344 171.982 344.028 172.237 344.082 172.481L310.288 183.384C309.932 182.767 309.393 182.282 308.751 182.012ZM345.956 168.622L322.224 134.953C322.951 134.339 323.417 133.393 323.417 132.332C323.417 130.48 321.999 128.979 320.25 128.979C319.576 128.979 318.951 129.202 318.438 129.582L303.922 108.99C304.235 108.47 304.417 107.852 304.417 107.19C304.417 105.339 302.999 103.838 301.25 103.838C299.673 103.838 298.366 105.058 298.124 106.655L213.344 105.881C213.127 104.253 211.806 103 210.208 103C208.459 103 207.042 104.501 207.042 106.352C207.042 107.352 207.455 108.25 208.111 108.864L195.927 129.077C195.683 129.013 195.429 128.979 195.167 128.979C193.418 128.979 192 130.48 192 132.332C192 133.127 192.262 133.857 192.699 134.432L170.105 171.914C169.773 171.789 169.415 171.72 169.041 171.72C167.293 171.72 165.875 173.221 165.875 175.072C165.875 175.988 166.222 176.819 166.784 177.424L158.024 191.958C157.751 191.877 157.464 191.833 157.167 191.833C155.418 191.833 154 193.334 154 195.186C154 197.037 155.418 198.538 157.167 198.538C157.516 198.538 157.852 198.478 158.166 198.367L187.17 274.359C186.725 274.936 186.458 275.673 186.458 276.476C186.458 278.328 187.876 279.829 189.625 279.829C190.293 279.829 190.913 279.61 191.424 279.235L214.36 291.245C214.235 291.605 214.167 291.994 214.167 292.4C214.167 294.251 215.584 295.752 217.333 295.752C218.456 295.752 219.442 295.133 220.005 294.2L259.3 314.776C259.295 314.859 259.292 314.942 259.292 315.027C259.292 316.878 260.709 318.379 262.458 318.379C264.207 318.379 265.625 316.878 265.625 315.027C265.625 314.89 265.617 314.756 265.602 314.624L298.936 295.339C299.387 295.602 299.906 295.752 300.458 295.752C302.134 295.752 303.505 294.374 303.617 292.631L328.024 278.511C328.603 279.312 329.515 279.829 330.542 279.829C332.29 279.829 333.708 278.328 333.708 276.476C333.708 275.214 333.049 274.114 332.074 273.543L359.754 192.67C359.781 192.671 359.807 192.671 359.833 192.671C361.582 192.671 363 191.171 363 189.319C363 187.468 361.582 185.967 359.833 185.967C359.329 185.967 358.851 186.092 358.428 186.315L349.628 173.83C350.069 173.254 350.333 172.52 350.333 171.72C350.333 169.869 348.916 168.368 347.167 168.368C346.738 168.368 346.329 168.458 345.956 168.622ZM193.439 135.141C193.936 135.484 194.529 135.684 195.167 135.684C195.504 135.684 195.828 135.628 196.132 135.525L207.835 183.558C206.923 183.806 206.17 184.473 205.769 185.354L172.179 175.529C172.198 175.38 172.208 175.227 172.208 175.072C172.208 173.99 171.723 173.027 170.971 172.415L193.439 135.141ZM356.667 189.319C356.667 188.376 357.035 187.524 357.627 186.915L348.896 174.529C348.399 174.873 347.805 175.073 347.167 175.073C346.531 175.073 345.938 174.874 345.442 174.532L310.34 216.999C310.601 217.487 310.75 218.05 310.75 218.651C310.75 219.106 310.664 219.54 310.509 219.936L342.182 240.923L358.764 192.475C357.541 192.011 356.667 190.773 356.667 189.319ZM167.577 178.045L158.926 192.398C159.775 192.999 160.333 194.023 160.333 195.186C160.333 196.29 159.829 197.27 159.05 197.88L174.924 239.468L206.525 220.019C206.348 219.601 206.25 219.138 206.25 218.651C206.25 217.9 206.483 217.207 206.877 216.649L170.853 177.823C170.339 178.202 169.715 178.425 169.041 178.425C168.513 178.425 168.015 178.288 167.577 178.045ZM207.571 215.927L171.556 177.11C171.694 176.92 171.813 176.713 171.911 176.493L205.492 186.314C205.47 186.474 205.458 186.638 205.458 186.805C205.458 188.656 206.876 190.157 208.625 190.157L208.651 190.157L208.683 190.156L208.89 215.345C208.404 215.431 207.955 215.634 207.571 215.927ZM209.89 215.336C210.853 215.488 211.674 216.1 212.148 216.953L245.217 200.48C245.103 200.134 245.042 199.763 245.042 199.376C245.042 198.873 245.146 198.395 245.334 197.967L211.552 188.087C211.21 188.961 210.528 189.649 209.681 189.966L209.89 215.336ZM212.503 217.894C212.556 218.137 212.584 218.391 212.584 218.651C212.584 220.502 211.166 222.003 209.417 222.003C208.473 222.003 207.626 221.566 207.046 220.873L176.02 239.967L220.222 261.236C220.787 260.32 221.764 259.715 222.875 259.715C223.367 259.715 223.832 259.834 224.247 260.046L235.56 242.68C235.056 242.087 234.75 241.301 234.75 240.44C234.75 238.589 236.168 237.088 237.916 237.088C238.198 237.088 238.471 237.127 238.73 237.2L247.543 202.654C246.778 202.481 246.116 202.016 245.665 201.374L212.503 217.894ZM344.715 173.842C344.612 173.709 344.519 173.567 344.436 173.418L310.656 184.316C310.718 184.576 310.75 184.848 310.75 185.129C310.75 186.98 309.332 188.481 307.583 188.481C307.531 188.481 307.478 188.48 307.426 188.477L308.353 215.398C308.872 215.535 309.339 215.808 309.721 216.178L344.715 173.842ZM304.604 186.268C304.913 187.171 305.577 187.894 306.417 188.246L307.35 215.308C306.206 215.396 305.231 216.127 304.746 217.161L267.869 200.334C267.954 200.03 268 199.709 268 199.376C268 198.943 267.922 198.528 267.781 198.148L304.604 186.268ZM298.118 294.657C297.733 294.21 297.46 293.653 297.348 293.035L262.253 290.236C262.096 290.675 261.851 291.079 261.531 291.418C260.937 292.046 260.132 292.399 259.292 292.399C258.452 292.399 257.647 292.046 257.053 291.418C256.721 291.066 256.47 290.644 256.313 290.186L220.407 293.21C220.402 293.232 220.397 293.253 220.391 293.274L259.524 313.764C259.995 312.539 261.131 311.675 262.458 311.675C263.734 311.675 264.833 312.473 265.335 313.623L298.118 294.657ZM256.614 287.752C256.31 288.15 256.125 288.588 256.125 289.047C256.125 289.073 256.125 289.098 256.126 289.124L256.127 289.148L256.127 289.172L256.128 289.198L220.495 292.199C220.444 291.299 220.059 290.495 219.468 289.924L222.892 266.42C223.805 266.415 224.627 266 225.201 265.342L256.614 287.752ZM218.548 289.303L221.905 266.26C220.63 265.826 219.708 264.561 219.708 263.068C219.708 262.751 219.749 262.446 219.827 262.156L175.429 240.793L187.96 273.624C188.444 273.307 189.014 273.124 189.625 273.124C191.374 273.124 192.792 274.625 192.792 276.476C192.792 277.232 192.555 277.93 192.157 278.49L214.822 290.358C215.401 289.561 216.31 289.047 217.333 289.047C217.764 289.047 218.174 289.138 218.548 289.303ZM267.461 201.247L304.455 218.127C304.43 218.298 304.417 218.473 304.417 218.651C304.417 220.502 305.834 222.003 307.583 222.003C308.558 222.003 309.429 221.537 310.01 220.804L341.462 241.645L298.492 263.983C297.956 262.939 296.91 262.23 295.708 262.23C295.083 262.23 294.5 262.422 294.009 262.753L277.597 243.374C278.032 242.8 278.292 242.072 278.292 241.278C278.292 239.427 276.874 237.926 275.125 237.926C275.081 237.926 275.037 237.927 274.993 237.929L265.206 202.705C266.145 202.588 266.958 202.038 267.461 201.247ZM264.153 202.651C262.755 202.327 261.703 201.025 261.668 199.457H251.374C251.336 201.145 250.119 202.524 248.562 202.707L239.651 237.635C240.514 238.234 241.083 239.267 241.083 240.44C241.083 240.74 241.046 241.031 240.976 241.307L253.217 245.814C253.704 244.625 254.823 243.792 256.125 243.792C257.572 243.792 258.792 244.82 259.17 246.222L272.089 242.234C272.004 241.931 271.958 241.61 271.958 241.278C271.958 239.841 272.813 238.615 274.013 238.139L264.153 202.651ZM275.125 244.631C274.032 244.631 273.069 244.045 272.5 243.154L259.291 247.232C259.247 249.043 257.846 250.497 256.125 250.497C254.376 250.497 252.958 248.996 252.958 247.145C252.958 247.025 252.964 246.907 252.976 246.791L240.593 242.232C240.032 243.17 239.043 243.793 237.916 243.793C237.336 243.793 236.792 243.627 236.325 243.339L225.056 260.637C225.663 261.248 226.042 262.111 226.042 263.068C226.042 263.579 225.933 264.064 225.74 264.497L257.333 287.036C258.364 286.222 259.839 285.695 260.875 285.695C261.695 285.695 262.095 286.025 262.287 286.567L292.95 267.23C292.69 266.743 292.542 266.181 292.542 265.582C292.542 264.765 292.817 264.017 293.276 263.435L276.877 244.072C276.375 244.425 275.773 244.631 275.125 244.631ZM297.134 268.576C298.167 268.024 298.875 266.89 298.875 265.582C298.875 265.363 298.855 265.148 298.817 264.941L341.568 242.717L331.14 273.184C330.946 273.145 330.746 273.124 330.542 273.124C328.793 273.124 327.375 274.625 327.375 276.476C327.375 276.879 327.442 277.264 327.564 277.621L303.518 291.533C303.228 290.381 302.372 289.473 301.285 289.163L297.134 268.576ZM293.549 268.034C294.115 268.592 294.874 268.934 295.708 268.934C295.868 268.934 296.025 268.922 296.178 268.897L300.243 289.055C298.711 289.164 297.477 290.426 297.311 292.029L262.453 289.248C262.457 289.182 262.459 289.115 262.459 289.047C262.459 288.897 262.46 288.749 262.461 288.604V288.604V288.604C262.463 288.265 262.466 287.943 262.454 287.644L293.549 268.034Z" fill="url(#paint2_radial_141_259)" fill-opacity="0.98"/>
</g>
<defs>
<linearGradient id="paint0_linear_141_259" x1="257" y1="13" x2="257" y2="422" gradientUnits="userSpaceOnUse">
<stop stop-color="#0FB3A8" stop-opacity="0.78"/>
<stop offset="1" stop-color="#65DF95" stop-opacity="0.18"/>
</linearGradient>
<linearGradient id="paint1_linear_141_259" x1="259.568" y1="314.851" x2="259.568" y2="420.284" gradientUnits="userSpaceOnUse">
<stop stop-color="#39D2F3"/>
<stop offset="1" stop-color="#39D2F3" stop-opacity="0"/>
</linearGradient>
<radialGradient id="paint2_radial_141_259" cx="0" cy="0" r="1" gradientUnits="userSpaceOnUse" gradientTransform="translate(277 197) rotate(125.513) scale(135.138 127.658)">
<stop stop-color="#0FB3A8"/>
<stop offset="1" stop-color="#65DF95"/>
</radialGradient>
</defs>
</svg>
