<svg width="514" height="421" viewBox="0 0 514 421" fill="none" xmlns="http://www.w3.org/2000/svg">
<rect opacity="0.39" y="12" width="514" height="409" rx="38" fill="url(#paint0_linear_141_258)"/>
<mask id="mask0_141_258" style="mask-type:alpha" maskUnits="userSpaceOnUse" x="56" y="0" width="403" height="410">
<rect width="403" height="410" transform="matrix(1 0 0 -1 56 410)" fill="white"/>
</mask>
<g mask="url(#mask0_141_258)">
<path d="M309.144 294.268C306.453 304.645 304.858 315.277 304.386 325.988C303.005 357.638 311.818 383.014 318.66 398.152L201.295 370.396C208.761 351.502 210.687 330.871 206.846 310.921C203.944 296.361 197.999 282.579 189.4 270.477L309.144 294.268Z" fill="#E6C3AD"/>
<path opacity="0.57" d="M232.223 307.749L211.604 362.466L194.951 322.816L210.018 296.646L232.223 307.749Z" fill="#D7806F"/>
<path d="M193.329 309.515C194.636 316.403 197.856 328.151 206.903 338.78C230.67 366.702 279.486 369.09 305.541 349.693C321.389 337.895 324.902 320.865 328.158 321.874C331.585 322.935 330.455 342.64 313.012 417.988C299.155 417.665 278.204 417.072 251.8 415.921C246.681 415.698 244.247 415.58 239.89 415.385C223.463 414.652 199.791 413.731 169.299 412.992C177.309 378.5 185.319 344.007 193.329 309.515Z" fill="#0FB3A8"/>
<path d="M174.886 314.851C179.374 325.198 188.167 340.958 204.925 353.294C238.243 377.82 285.913 376.2 314.97 356.082C335.95 341.556 339.582 320.336 345.976 321.843C351.994 323.261 355.76 343.31 347.73 420.228L166.821 420.284C169.509 385.14 172.197 349.995 174.886 314.851Z" fill="url(#paint1_linear_141_258)"/>
<path d="M114.064 148.354C112.13 161.209 109.849 213.762 109.784 221.719C109.712 230.593 109.713 230.609 109.713 230.609C109.689 237.828 109.781 238.278 109.428 241.773C103.94 295.982 71.1514 300.584 76.6108 338.252C82.6773 380.111 115.335 392.329 121.208 422.966C123.699 435.959 121.492 455.011 100.583 481.418C108.91 485.648 157.936 509.854 184.318 488.854C197.85 478.082 200.28 459.987 201.147 444.144C203.952 392.898 206.757 341.651 209.561 290.405C195.705 280.944 183.483 269.287 173.379 255.892C166.394 246.574 155.079 231.286 150.659 210.398C142.519 171.932 164.639 139.59 171.36 129.762C180.827 115.919 203.611 82.5872 242.378 77.0523C292.515 69.8942 343.355 112.943 358.499 158.628C376.568 213.13 340.598 261.626 334.097 270.011C325.924 280.484 316.289 289.73 305.488 297.464L306.329 437.869C306.508 467.66 316.576 481.823 329.049 489.638C358.579 508.141 405.91 475.484 409.856 472.694C400.542 459.07 388.897 437.307 390.824 411.633C394.36 364.526 439.774 354.457 438.405 314.886C437.229 280.896 402.41 264.105 399.547 221.311C399.385 218.889 398.653 206.323 397.961 191.176C396.72 163.973 397.056 160.094 396.375 154.698C393.338 130.627 374.918 113.91 359.104 99.9806C337.117 80.614 303.222 50.6645 252.841 50.0211C179.689 49.0868 120.004 108.874 114.064 148.354Z" fill="#1A1A1A"/>
<path opacity="0.57" d="M158.052 166.941C143.233 217.579 174.422 259.435 181.05 267.848C187.551 276.101 220.74 319.769 268.28 314.888C305.355 311.081 327.306 280.249 336.479 267.364C342.537 258.855 368.179 222.838 359.476 176.804C351.742 135.891 317.18 88.7654 263.522 85.7595C212.409 82.8961 170.755 123.535 158.052 166.941Z" fill="#D7806F"/>
<path d="M160.059 161.331C143.877 216.123 178.427 260.917 182.263 265.719C187.41 272.163 221.651 315.038 270.287 309.278C307.758 304.841 329.467 274.422 338.486 261.754C344.543 253.245 370.185 217.229 361.483 171.194C353.749 130.282 319.186 83.156 265.529 80.15C212.636 77.187 172.392 119.572 160.059 161.331Z" fill="#E6C3AD"/>
<g opacity="0.57">
<path opacity="0.57" d="M232.514 181.592C228.841 180.969 225.193 180.262 221.449 179.694C217.692 179.174 213.967 178.607 210.298 178.438C206.613 178.246 202.92 178.635 199.356 179.591C195.719 180.583 192.235 182.07 189.004 184.012C191.995 181.596 195.305 179.604 198.84 178.091C202.459 176.561 206.296 175.608 210.211 175.267C214.13 174.903 217.98 174.956 221.787 174.948C225.603 174.99 229.489 175.187 233.365 175.306C233.801 175.32 234.229 175.423 234.623 175.608C235.017 175.794 235.369 176.059 235.657 176.386C235.945 176.713 236.162 177.096 236.296 177.511C236.43 177.925 236.477 178.363 236.435 178.797C236.393 179.231 236.263 179.651 236.052 180.032C235.841 180.413 235.554 180.747 235.208 181.013C234.863 181.279 234.467 181.471 234.044 181.578C233.622 181.685 233.182 181.703 232.752 181.633L232.514 181.592Z" fill="#D7806F"/>
</g>
<path d="M195.864 199.298C199.624 197.966 203.516 197.043 207.474 196.545C216.802 195.432 226.26 196.615 235.026 199.99" stroke="black" stroke-width="7" stroke-miterlimit="10" stroke-linecap="round"/>
<path d="M187.988 182.416C190.558 179.614 193.61 177.297 197.001 175.577C203.977 172.115 210.632 172.535 223.657 173.518C227.944 173.841 231.428 174.259 233.626 174.549" stroke="black" stroke-width="8" stroke-miterlimit="10" stroke-linecap="round"/>
<path opacity="0.57" d="M289.201 264.45C288.94 263.301 280.585 265.431 266.05 265.592C245.176 265.821 233.597 261.744 233.245 263.083C232.837 264.637 247.685 272.81 265.257 271.936C278.307 271.286 289.512 265.814 289.201 264.45Z" fill="#D7806F"/>
<path d="M206.053 448.904C205.153 462.431 204.098 479.518 191.779 490.141C165.784 512.557 111.895 486.992 100.583 481.417C114.288 469.143 130.207 450.562 130.718 427.493C131.522 391.094 94.0511 381.544 88.6881 341.848C83.5432 303.765 114.444 299.113 119.615 244.308C123.605 202.03 106.28 192.729 114.064 148.354C116.158 136.419 120.458 110.967 138.648 86.4995C173.741 39.2939 229.039 30.2645 235.395 29.4029C251.783 27.1812 288.435 24.8193 325.991 45.943C329.741 48.0524 382.977 79.0628 394.789 138.045C401.947 173.785 385.995 177.474 390.824 218.932C397.779 278.647 433.483 289.363 426.51 327.574C420.219 362.044 388.809 366.225 383.687 401.324C379.56 429.602 395.778 455.468 409.856 472.694C388.053 503.676 349.539 510.701 326.591 494.899C314.42 486.518 309.245 471.858 305.179 442.56C300.606 409.605 297.106 360.19 305.179 297.44C315.073 290.588 323.892 282.303 331.349 272.856C334.247 269.172 372.428 218.763 354.346 160.249C340.073 114.062 292.16 70.5396 244.911 77.7764C208.376 83.3721 186.904 117.07 177.982 131.066C171.461 141.293 152.515 172.293 158.473 212.588C162.324 238.634 174.914 256.46 179.884 263.34C190.21 277.6 203.457 289.495 218.741 298.233C212.445 362.801 208.612 410.457 206.053 448.904Z" fill="black"/>
<path d="M158.869 184.41C155.35 184.659 152.008 186.052 149.353 188.375C141.081 196.089 146.301 211.104 146.974 212.959C151.231 224.696 161.631 229.909 164.42 231.198" fill="#E6C3AD"/>
<path d="M354.488 184.41C358.007 184.659 361.349 186.052 364.004 188.375C372.275 196.089 367.055 211.104 366.383 212.959C362.126 224.696 351.725 229.909 348.937 231.198" fill="#E6C3AD"/>
<path d="M246.283 80.4222C222.081 92.4737 201.135 110.174 185.215 132.027C168.876 154.559 158.207 180.696 154.111 208.226C154.559 194.07 156.702 180.019 160.495 166.374C164.313 152.527 169.81 139.199 176.864 126.686C183.999 113.993 192.644 102.209 202.612 91.594C212.701 80.8247 224.045 71.3039 236.401 63.2354L246.283 80.4222Z" fill="black"/>
<path d="M246.865 60.3882C255.239 63.3506 263.416 66.8438 271.345 70.8466C279.227 74.8462 286.833 79.3677 294.113 84.3808C301.338 89.3797 308.211 94.8689 314.683 100.81C316.334 102.291 317.831 103.733 319.38 105.199C320.926 106.672 322.471 108.153 324.009 109.67C327.075 112.707 330.129 115.798 333.022 119.084C335.952 122.346 338.713 125.757 341.295 129.301C342.619 131.05 343.816 132.903 345.036 134.726C345.653 135.631 346.189 136.598 346.767 137.53C347.323 138.478 347.929 139.389 348.432 140.37C352.695 147.998 355.974 156.136 358.189 164.59C360.325 172.933 361.43 181.507 361.48 190.119C361.516 198.611 360.586 207.081 358.708 215.363C359.659 207.031 359.66 198.618 358.709 190.285C357.76 182.071 355.808 174.003 352.897 166.263C349.984 158.658 346.12 151.454 341.396 144.821C340.843 143.978 340.186 143.201 339.585 142.392C338.96 141.598 338.383 140.774 337.723 140.006C336.419 138.462 335.153 136.898 333.759 135.43C331.032 132.44 328.154 129.592 325.136 126.897C322.14 124.165 318.962 121.587 315.741 119.03C314.128 117.756 312.482 116.492 310.828 115.232C309.167 113.974 307.473 112.67 305.848 111.51C299.331 106.731 292.494 102.406 285.385 98.5631C278.313 94.7625 270.996 91.438 263.481 88.6118C256.001 85.8188 248.352 83.5045 240.578 81.6831L246.865 60.3882Z" fill="black"/>
<path d="M395.979 166.197C392.523 168.033 388.867 169.466 385.083 170.466C381.198 171.47 377.19 171.916 373.18 171.79C369.066 171.657 364.998 170.887 361.12 169.508C357.229 168.059 353.553 166.085 350.194 163.643C346.911 161.226 343.838 158.538 341.006 155.606C338.215 152.716 335.622 149.715 333.109 146.714C328.14 140.679 323.452 134.661 318.525 129.116C317.295 127.727 316.036 126.387 314.766 125.068C313.462 123.784 312.196 122.47 310.851 121.235C308.217 118.71 305.414 116.368 302.546 114.119C296.767 109.643 290.623 105.66 284.178 102.213C271.286 95.2262 257.227 90.3374 242.816 86.6643L247.789 86.0717C241.731 89.2054 235.838 92.6462 230.131 96.3808C224.444 100.121 218.975 104.182 213.75 108.544C211.149 110.734 208.588 112.981 206.151 115.358C203.649 117.672 201.266 120.106 198.918 122.584C194.259 127.577 189.847 132.849 185.484 138.394C183.279 141.134 181.044 143.944 178.724 146.73C177.575 148.124 176.353 149.513 175.154 150.886C173.875 152.229 172.665 153.609 171.329 154.91C166.096 160.219 160.151 164.777 153.665 168.452C147.293 172.072 140.478 174.847 133.39 176.708C129.9 177.635 126.356 178.349 122.78 178.845C119.232 179.324 115.661 179.602 112.082 179.678C125.946 176.455 139.045 170.953 149.982 162.755C152.705 160.742 155.296 158.558 157.739 156.214L159.545 154.456L161.26 152.603C162.428 151.403 163.491 150.08 164.576 148.791C168.852 143.575 172.653 137.767 176.659 131.871C180.699 125.832 185.043 120.002 189.676 114.404C199.165 103.099 210.154 93.1418 222.338 84.8094C228.4 80.6387 234.713 76.8439 241.24 73.4465L243.59 72.2046L246.213 72.8538C261.637 76.6703 276.844 82.1884 290.854 90.2565C297.867 94.3045 304.498 98.983 310.663 104.234C316.8 109.51 322.382 115.4 327.321 121.811C332.243 128.108 336.457 134.668 340.768 140.914C342.909 144.044 345.076 147.101 347.37 149.991C349.59 152.872 352.047 155.564 354.714 158.037C357.321 160.478 360.242 162.56 363.4 164.228C366.614 165.885 370.054 167.06 373.609 167.715C380.82 169.072 388.552 168.331 395.979 166.197Z" fill="#1A1A1A"/>
<path d="M242.928 76.587C238.434 61.2555 233.941 45.924 229.447 30.5925Z" fill="#54278F"/>
<path d="M239.124 77.7025L229.447 30.5923L246.733 75.4718L239.124 77.7025Z" fill="#1A1A1A"/>
<g opacity="0.57">
<path opacity="0.57" d="M285.531 176.099C289.407 175.98 293.293 175.783 297.109 175.74C300.916 175.749 304.767 175.696 308.686 176.06C312.6 176.401 316.437 177.354 320.056 178.884C323.592 180.397 326.902 182.389 329.893 184.805C326.661 182.863 323.178 181.376 319.54 180.384C315.976 179.428 312.284 179.039 308.599 179.231C304.93 179.4 301.205 179.967 297.448 180.486C293.704 181.055 290.055 181.762 286.383 182.385L286.163 182.423C285.75 182.493 285.328 182.481 284.92 182.388C284.512 182.295 284.127 182.122 283.786 181.88C283.445 181.638 283.155 181.331 282.932 180.977C282.71 180.623 282.559 180.228 282.489 179.816C282.419 179.404 282.431 178.981 282.524 178.574C282.617 178.166 282.789 177.78 283.031 177.439C283.273 177.098 283.58 176.808 283.935 176.585C284.289 176.363 284.683 176.212 285.096 176.142C285.24 176.119 285.385 176.104 285.531 176.099V176.099Z" fill="#D7806F"/>
</g>
<path d="M330.944 183.209C328.374 180.407 325.322 178.09 321.931 176.37C314.955 172.908 308.3 173.328 295.275 174.311C290.988 174.634 287.504 175.052 285.306 175.342" stroke="black" stroke-width="8" stroke-miterlimit="10" stroke-linecap="round"/>
<path opacity="0.57" d="M268.737 230C268.669 232.601 267.598 235.075 265.748 236.904C264.161 238.412 262.12 239.354 259.942 239.582" stroke="#D7806F" stroke-width="9" stroke-miterlimit="10" stroke-linecap="round"/>
<ellipse cx="218.5" cy="201" rx="11.5" ry="8" fill="black"/>
<path d="M324.364 199.528C320.604 198.195 316.711 197.273 312.754 196.775C303.426 195.662 293.968 196.845 285.202 200.22" stroke="black" stroke-width="7" stroke-miterlimit="10" stroke-linecap="round"/>
<ellipse rx="11.5" ry="8" transform="matrix(-1 0 0 1 301.728 201.229)" fill="black"/>
</g>
<mask id="mask1_141_258" style="mask-type:alpha" maskUnits="userSpaceOnUse" x="56" y="12" width="403" height="399">
<rect width="403" height="398.314" transform="matrix(1 0 0 -1 56 410.313)" fill="white"/>
</mask>
<g mask="url(#mask1_141_258)">
<ellipse cx="260.5" cy="210.5" rx="91.5" ry="74.5" fill="#E6C3AD"/>
</g>
<path d="M301 211.157C301 232.618 283.091 250.017 261 250.017C238.909 250.017 221 232.618 221 211.157C221 189.695 238.909 172.297 261 172.297C283.091 172.297 301 189.695 301 211.157ZM233.369 211.157C233.369 225.982 245.74 238 261 238C276.26 238 288.631 225.982 288.631 211.157C288.631 196.332 276.26 184.314 261 184.314C245.74 184.314 233.369 196.332 233.369 211.157Z" fill="white"/>
<path d="M292.283 223.955C295.384 225.224 298.985 223.785 299.817 220.539C300.851 216.502 301.214 212.316 300.88 208.143C300.385 201.964 298.376 195.989 295.02 190.718C291.665 185.447 287.06 181.031 281.591 177.841C277.839 175.653 273.755 174.084 269.506 173.186C266.267 172.501 263.402 175.049 263.182 178.351V178.351C262.961 181.671 265.514 184.477 268.716 185.381C270.99 186.024 273.178 186.95 275.223 188.143C279.002 190.347 282.182 193.397 284.5 197.038C286.818 200.679 288.206 204.806 288.548 209.075C288.722 211.249 288.622 213.429 288.256 215.565C287.673 218.966 289.089 222.648 292.283 223.955V223.955Z" fill="url(#paint2_linear_141_258)"/>
<defs>
<linearGradient id="paint0_linear_141_258" x1="257" y1="12" x2="257" y2="421" gradientUnits="userSpaceOnUse">
<stop stop-color="#0FB3A8" stop-opacity="0.78"/>
<stop offset="1" stop-color="#65DF95" stop-opacity="0.18"/>
</linearGradient>
<linearGradient id="paint1_linear_141_258" x1="259.568" y1="314.851" x2="259.568" y2="420.284" gradientUnits="userSpaceOnUse">
<stop stop-color="#39D2F3"/>
<stop offset="1" stop-color="#39D2F3" stop-opacity="0"/>
</linearGradient>
<linearGradient id="paint2_linear_141_258" x1="261" y1="172.297" x2="261" y2="250.017" gradientUnits="userSpaceOnUse">
<stop stop-color="#0FB3A8"/>
<stop offset="1" stop-color="#65DF95" stop-opacity="0.32"/>
</linearGradient>
</defs>
</svg>
