<svg width="127" height="127" viewBox="0 0 127 127" fill="none" xmlns="http://www.w3.org/2000/svg">
<path d="M127 63.5C127 98.5701 98.5701 127 63.5 127C28.4299 127 0 98.5701 0 63.5C0 28.4299 28.4299 0 63.5 0C98.5701 0 127 28.4299 127 63.5ZM18.5948 63.5C18.5948 88.3004 38.6996 108.405 63.5 108.405C88.3004 108.405 108.405 88.3004 108.405 63.5C108.405 38.6996 88.3004 18.5948 63.5 18.5948C38.6996 18.5948 18.5948 38.6996 18.5948 63.5Z" fill="#C4C4C4" fill-opacity="0.32"/>
<path d="M125.903 51.7494C123.035 36.5165 114.694 22.8588 102.452 13.3504C90.2103 3.84199 74.9134 -0.860339 59.4444 0.12964L60.678 19.4041C71.442 18.7152 82.0862 21.9873 90.6046 28.6036C99.123 35.22 104.927 44.7236 106.923 55.3234L125.903 51.7494Z" fill="url(#paint0_linear_92_221)"/>
<defs>
<linearGradient id="paint0_linear_92_221" x1="63.5" y1="0" x2="63.5" y2="127" gradientUnits="userSpaceOnUse">
<stop stop-color="#0FB3A8"/>
<stop offset="1" stop-color="#65DF95"/>
</linearGradient>
</defs>
</svg>
