<svg width="127" height="127" viewBox="0 0 127 127" fill="none" xmlns="http://www.w3.org/2000/svg">
<path d="M127 63.5C127 98.5701 98.5701 127 63.5 127C28.4299 127 0 98.5701 0 63.5C0 28.4299 28.4299 0 63.5 0C98.5701 0 127 28.4299 127 63.5ZM18.5948 63.5C18.5948 88.3004 38.6996 108.405 63.5 108.405C88.3004 108.405 108.405 88.3004 108.405 63.5C108.405 38.6996 88.3004 18.5948 63.5 18.5948C38.6996 18.5948 18.5948 38.6996 18.5948 63.5Z" fill="#C4C4C4" fill-opacity="0.32"/>
<path d="M116.413 53.5364C121.654 52.5495 125.173 47.4626 123.403 42.4313C121.413 36.7729 118.625 31.4095 115.112 26.5078C109.718 18.9814 102.743 12.7259 94.6756 8.17972C86.6085 3.63352 77.6447 0.906669 68.4125 0.190304C62.3999 -0.276236 56.3683 0.117303 50.4972 1.34553C45.2768 2.43763 42.7475 8.08172 44.6179 13.0764C46.4882 18.071 52.0636 20.4876 57.3449 19.7447C60.5065 19.2999 63.7163 19.1978 66.9183 19.4463C73.3425 19.9448 79.5799 21.8422 85.1934 25.0057C90.8068 28.1691 95.6605 32.522 99.4142 37.7592C101.285 40.3696 102.86 43.1682 104.117 46.1031C106.217 51.0057 111.172 54.5233 116.413 53.5364Z" fill="url(#paint0_linear_92_221)"/>
<defs>
<linearGradient id="paint0_linear_92_221" x1="63.5" y1="0" x2="63.5" y2="127" gradientUnits="userSpaceOnUse">
<stop stop-color="#0FB3A8"/>
<stop offset="1" stop-color="#65DF95"/>
</linearGradient>
</defs>
</svg>
